<?xml version="1.0" encoding="UTF-8" ?>
<!DOCTYPE svg PUBLIC "-//W3C//DTD SVG 20010904//EN" "http://www.w3.org/TR/2001/REC-SVG-20010904/DTD/svg10.dtd">
<svg version="1.0" xmlns="http://www.w3.org/2000/svg" xmlns:xlink="http://www.w3.org/1999/xlink" x="0px" y="0px" width="1152px" height="1152px" xml:space="preserve">
<g id="">
<path style="fill:rgb(221,0,0);" d="M 386.112 109.593 C 329.247 137.312 269.238 158.457 237.519 161.601 C 228.089 162.458 218.373 164.172 216.087 165.601 C 213.515 166.744 197.513 169.888 180.368 172.745 C 162.937 175.317 147.22 179.032 145.505 180.461 C 140.933 183.89 140.648 214.18 144.648 290.477 C 149.22 379.347 156.078 421.067 174.938 482.219 C 196.942 553.087 237.519 625.098 285.812 679.677 C 321.531 719.969 398.685 782.264 421.832 789.693 C 440.692 795.694 520.418 737.686 569.854 681.963 C 622.433 623.097 664.439 547.086 686.156 472.218 C 705.302 406.494 711.303 358.773 715.018 240.469 L 717.018 183.032 L 711.589 180.175 C 708.731 178.746 689.586 174.46 669.011 171.031 C 622.433 163.315 593 156.457 561.852 146.456 C 534.991 138.169 474.982 112.451 451.265 99.5917 C 442.692 94.7339 432.976 91.019 429.547 91.3048 C 426.118 91.3048 406.687 99.5917 386.112 109.593 zM 446.121 128.453 C 459.552 136.169 523.847 163.887 545.564 170.745 C 556.137 174.46 564.71 178.174 564.71 179.317 C 564.71 182.175 555.852 194.748 551.279 198.749 C 546.136 203.035 514.131 191.605 464.124 167.601 L 427.833 150.171 L 399.828 163.887 C 365.823 180.175 320.388 198.463 305.529 201.892 L 294.384 204.464 L 288.098 195.034 C 284.669 189.605 281.811 184.461 281.811 183.032 C 281.811 181.889 290.669 177.889 301.528 174.46 C 329.818 165.601 367.252 150.456 400.4 134.454 C 429.547 120.166 431.262 119.88 446.121 128.453 zM 460.695 180.746 C 487.841 193.891 518.417 206.464 531.276 209.608 C 535.563 210.751 539.849 212.751 540.706 214.18 C 541.564 215.609 525.276 244.47 504.415 278.475 L 466.41 340.198 L 462.981 329.34 C 461.266 323.053 457.837 314.48 455.265 309.908 C 452.693 305.336 449.264 293.049 447.55 282.476 C 444.978 266.759 444.978 261.33 448.693 250.757 C 455.551 231.611 454.979 230.754 439.834 237.326 C 420.117 245.899 408.401 255.9 399.828 270.474 C 391.827 284.19 390.97 293.049 393.828 334.483 C 394.685 345.342 394.685 353.915 393.542 353.915 C 389.827 353.629 304.1 219.038 306.386 217.037 C 307.815 215.609 318.102 211.894 328.961 208.465 C 340.105 205.036 364.966 194.463 384.683 185.318 C 404.401 176.174 423.832 168.459 427.833 168.459 C 432.119 168.173 446.978 173.888 460.695 180.746 zM 677.298 200.178 L 691.014 203.035 L 689.3 243.613 C 683.87 358.487 678.441 398.778 660.438 460.788 C 639.578 532.798 596.143 612.239 548.708 665.389 C 527.847 688.821 469.553 739.686 463.838 739.686 C 462.695 739.686 461.838 732.256 461.838 722.826 L 461.838 706.252 L 478.983 692.822 C 503.844 673.105 542.421 635.956 554.994 619.668 C 564.138 607.666 567.282 605.38 575.283 605.38 L 584.713 605.38 L 584.713 592.236 C 584.713 581.663 587.57 573.947 598.715 554.23 C 641.293 478.505 658.152 399.921 659.867 269.902 L 660.438 224.181 L 640.435 220.181 C 629.577 217.895 620.147 215.894 619.575 215.323 C 619.004 214.751 621.575 209.608 625.29 203.893 L 631.863 193.605 L 647.579 195.32 C 656.152 196.463 669.583 198.463 677.298 200.178 zM 216.944 207.893 L 224.374 219.038 L 210.086 221.038 C 200.942 222.181 194.941 224.753 194.084 227.61 C 191.512 234.183 198.656 362.202 203.514 393.063 C 212.944 455.93 233.804 516.51 263.523 565.66 C 270.381 577.091 273.238 585.377 273.238 593.664 L 273.238 605.38 L 281.24 605.38 C 287.526 605.38 291.527 608.524 300.099 619.954 C 314.102 637.957 357.822 679.106 379.826 694.822 L 396.114 706.538 L 396.114 723.112 C 396.114 732.256 395.256 739.686 393.828 739.686 C 389.541 739.686 351.821 707.967 328.104 684.535 C 273.238 630.527 227.517 554.516 201.514 473.647 C 191.512 442.213 179.51 389.063 176.081 360.487 C 172.652 331.34 166.366 205.607 168.366 203.607 C 169.795 201.892 193.513 197.606 203.514 197.034 C 207.515 196.749 212.086 200.463 216.944 207.893 zM 291.527 321.053 L 350.678 410.78 L 339.248 430.497 C 332.676 441.07 327.532 452.786 327.532 456.216 L 327.532 462.502 L 306.1 462.502 L 284.669 462.502 L 284.669 483.934 L 284.669 505.366 L 307.243 505.366 L 329.818 505.366 L 334.104 516.224 C 336.676 522.225 345.249 533.656 353.25 541.371 L 367.824 555.373 L 361.251 557.373 C 357.536 558.231 336.676 559.088 314.387 559.374 L 274.381 559.659 L 262.665 537.37 C 247.234 508.509 229.518 454.501 220.659 410.494 C 215.516 385.062 212.658 356.772 210.372 307.336 C 208.372 269.902 207.515 238.469 208.372 237.612 C 209.801 236.469 222.945 232.754 230.661 231.325 C 231.518 231.039 258.951 271.617 291.527 321.053 zM 645.293 235.612 C 648.722 237.612 646.151 319.91 641.578 366.774 C 635.578 424.782 619.861 481.076 595.857 530.226 L 581.855 559.659 L 541.278 559.659 L 500.986 559.659 L 511.273 549.658 C 523.561 537.942 530.419 525.369 531.276 514.51 L 531.848 506.794 L 556.995 505.937 L 581.855 505.08 L 581.855 483.934 L 581.855 462.502 L 558.423 462.502 L 534.706 462.502 L 525.276 441.356 C 519.846 429.64 513.274 417.924 510.13 415.067 C 507.273 412.495 504.701 408.494 504.701 406.208 C 504.701 401.35 518.703 376.775 548.136 330.768 C 559.566 312.48 578.141 282.476 588.999 264.187 L 609.002 230.754 L 625.576 232.182 C 634.72 233.04 643.579 234.754 645.293 235.612 zM 429.833 291.62 C 430.976 319.338 434.691 328.482 460.409 365.916 C 496.128 417.638 499.272 423.354 500.986 440.213 C 502.129 453.072 501.272 458.502 493.557 475.075 L 484.698 494.507 L 496.986 487.363 C 503.558 483.362 510.988 476.218 513.274 471.361 C 520.418 457.073 522.704 461.073 520.989 484.505 C 518.703 518.796 514.988 527.369 495.843 545.943 C 478.411 562.803 466.124 568.518 438.406 572.518 C 405.544 577.376 353.536 543.657 344.392 511.652 C 340.391 497.364 342.106 469.075 348.392 451.929 C 353.822 436.498 376.682 396.207 378.682 398.493 C 379.54 399.35 382.969 409.066 386.398 420.21 L 392.113 440.499 L 402.4 431.355 C 417.545 418.21 420.689 403.351 416.117 367.345 C 408.401 305.336 408.687 294.477 419.26 281.333 C 422.403 277.332 425.832 273.903 426.975 273.903 C 428.118 273.903 429.261 281.904 429.833 291.62 zM 396.114 648.244 C 396.114 671.676 395.542 691.107 394.685 691.107 C 389.541 691.107 332.961 639.385 315.53 618.811 L 304.1 605.38 L 350.107 605.38 L 396.114 605.38 L 396.114 648.244 zM 544.993 613.096 C 534.42 628.241 469.553 688.25 464.409 688.25 C 462.981 688.25 461.838 669.676 461.838 646.815 L 461.838 605.38 L 506.416 605.38 L 550.708 605.38 L 544.993 613.096 "/>
<path style="fill:rgb(221,0,0);" d="M 436.405 368.774 C 441.263 377.632 440.12 411.923 434.691 422.496 C 432.405 427.068 423.26 437.927 414.688 445.928 C 405.829 454.215 397.542 465.074 395.542 470.218 C 391.827 480.505 387.541 480.219 387.541 469.36 C 387.541 461.359 386.969 461.073 376.682 466.503 C 360.108 475.075 354.679 484.22 354.679 503.365 C 354.679 524.511 362.68 538.513 382.397 551.372 C 404.972 566.232 444.692 569.661 459.837 557.659 C 468.982 550.801 482.984 534.227 481.269 532.513 C 480.698 531.941 474.697 533.37 467.839 535.656 L 455.551 539.942 L 448.979 535.656 C 436.12 527.083 437.263 521.368 457.266 497.936 C 501.272 446.5 500.986 427.068 455.265 380.204 C 437.263 361.916 430.69 357.915 436.405 368.774 "/>
</g>
<path style="fill:rgb(221,0,0);" d=""/>

</svg>